<?xml version="1.0" standalone="no"?>
<!DOCTYPE svg PUBLIC "-//W3C//DTD SVG 20010904//EN"
 "http://www.w3.org/TR/2001/REC-SVG-20010904/DTD/svg10.dtd">
<svg version="1.0" xmlns="http://www.w3.org/2000/svg"
 width="255.000000pt" height="255.000000pt" viewBox="0 0 255.000000 255.000000"
 preserveAspectRatio="xMidYMid meet">
<metadata>
Created by potrace 1.11, written by Peter Selinger 2001-2013
</metadata>
<g transform="translate(0.000000,255.000000) scale(0.100000,-0.100000)"
fill="#000000" stroke="none">
<path d="M1149 2546 c-2 -2 -28 -7 -57 -10 -335 -40 -680 -258 -876 -554 -138
-207 -206 -423 -211 -672 -6 -289 57 -511 211 -742 234 -352 632 -566 1054
-566 348 0 662 130 905 373 323 322 447 787 330 1230 -107 407 -423 743 -825
878 -125 42 -227 59 -381 63 -80 2 -148 2 -150 0z"/>
</g>
</svg>
